<svg width="36" height="23" viewBox="0 0 36 23" fill="none" xmlns="http://www.w3.org/2000/svg">
  <path d="M34.3171 13C35.1455 13 35.8171 12.3284 35.8171 11.5C35.8171 10.6716 35.1455 10 34.3171 10V13ZM0.768613 10.4393C0.182827 11.0251 0.182827 11.9749 0.768613 12.5607L10.3146 22.1066C10.9003 22.6924 11.8501 22.6924 12.4359 22.1066C13.0217 21.5208 13.0217 20.5711 12.4359 19.9853L3.95059 11.5L12.4359 3.01472C13.0217 2.42893 13.0217 1.47918 12.4359 0.893398C11.8501 0.307612 10.9003 0.307612 10.3146 0.893398L0.768613 10.4393ZM34.3171 10L1.82927 10V13L34.3171 13V10Z" fill="black"/>
</svg>
